<svg xmlns="http://www.w3.org/2000/svg" xmlns:xlink="http://www.w3.org/1999/xlink" width="500" zoomAndPan="magnify" viewBox="0 0 375 374.999991" height="500" preserveAspectRatio="xMidYMid meet" version="1.0"><defs><clipPath id="913627bb41"><path d="M 86 25.535156 L 288 25.535156 L 288 287 L 86 287 Z M 86 25.535156 " clip-rule="nonzero"/></clipPath><clipPath id="3bfd2547c9"><path d="M 55.75 250 L 319 250 L 319 333.035156 L 55.75 333.035156 Z M 55.75 250 " clip-rule="nonzero"/></clipPath></defs><g clip-path="url(#913627bb41)"><path fill="#007bff" d="M 182.984375 285.203125 C 184.257812 286.28125 185.824219 286.820312 187.386719 286.820312 C 188.953125 286.820312 190.519531 286.28125 191.789062 285.203125 C 195.710938 281.886719 287.808594 203.074219 287.808594 126.121094 C 287.804688 70.65625 242.757812 25.535156 187.386719 25.535156 C 132.015625 25.535156 86.972656 70.65625 86.972656 126.121094 C 86.972656 203.074219 179.066406 281.886719 182.984375 285.203125 Z M 187.386719 39.199219 C 235.234375 39.199219 274.164062 78.191406 274.164062 126.117188 C 274.164062 187.640625 205.621094 254.226562 187.386719 270.847656 C 169.15625 254.226562 100.617188 187.636719 100.617188 126.117188 C 100.617188 78.191406 139.539062 39.199219 187.386719 39.199219 Z M 187.386719 39.199219 " fill-opacity="1" fill-rule="nonzero"/></g><path fill="#007bff" d="M 236.847656 123.867188 C 236.847656 96.550781 214.660156 74.324219 187.386719 74.324219 C 160.117188 74.324219 137.929688 96.550781 137.929688 123.867188 C 137.929688 151.183594 160.117188 173.40625 187.386719 173.40625 C 214.660156 173.40625 236.847656 151.183594 236.847656 123.867188 Z M 151.574219 123.867188 C 151.574219 104.085938 167.640625 87.992188 187.386719 87.992188 C 207.136719 87.992188 223.203125 104.085938 223.203125 123.867188 C 223.203125 143.648438 207.136719 159.742188 187.386719 159.742188 C 167.640625 159.742188 151.574219 143.648438 151.574219 123.867188 Z M 151.574219 123.867188 " fill-opacity="1" fill-rule="nonzero"/><g clip-path="url(#3bfd2547c9)"><path fill="#007bff" d="M 242.683594 250.878906 C 238.949219 250.332031 235.503906 252.964844 234.984375 256.707031 C 234.46875 260.445312 237.070312 263.898438 240.804688 264.414062 C 287.71875 270.949219 305.199219 283.648438 305.199219 290.117188 C 305.199219 302.042969 259.3125 319.367188 187.40625 319.367188 C 115.476562 319.367188 69.578125 302.042969 69.578125 290.117188 C 69.578125 283.667969 87.070312 270.984375 134.011719 264.414062 C 137.742188 263.894531 140.347656 260.441406 139.824219 256.703125 C 139.300781 252.964844 135.855469 250.328125 132.121094 250.882812 C 109.214844 254.082031 55.933594 264.328125 55.933594 290.117188 C 55.933594 318.292969 122.070312 333.035156 187.40625 333.035156 C 252.722656 333.035156 318.84375 318.292969 318.84375 290.117188 C 318.84375 264.273438 265.582031 254.066406 242.683594 250.878906 Z M 242.683594 250.878906 " fill-opacity="1" fill-rule="nonzero"/></g></svg>